<?xml version="1.0" encoding="UTF-8"?>
<svg width="752pt" height="752pt" version="1.1" viewBox="0 0 752 752" xmlns="http://www.w3.org/2000/svg">
 <g>
  <path d="m365.92 460.36c3.3281-2.4961 6.9375-4.9023 10.637-7.2148l-3.9766-6.2891c-3.793 2.4062-7.5859 4.9961-11.098 7.5859z"/>
  <path d="m356.86 467.57-4.8086-5.6406c-21.09 18.223-32.559 38.199-31.449 54.852l7.3984-0.55469c-1.0195-14.25 9.5273-32.008 28.859-48.656z"/>
  <path d="m582.29 466.05 6.8906-2.6992 5.9727 15.242-6.8906 2.6992z"/>
  <path d="m570.06 434.83 7.0312 17.945 6.8438-2.6836-7.0312-17.945c0-0.09375 0-0.09375-0.09375-0.18359-6.1953-13.969-22.383-22.199-45.602-23.309l-0.37109 7.3984c20.262 0.83594 34.227 7.5859 39.223 18.777z"/>
  <path d="m551.38 569.6 4.5312 5.8281c21.09-16.188 34.5-34.223 37.738-50.781l-7.3086-1.3867c-2.8672 14.613-15.629 31.445-34.961 46.34z"/>
  <path d="m522.33 587.63 3.3281 6.5664c4.9023-2.4961 9.7109-5.1797 14.246-7.9531l-3.8867-6.2891c-4.3477 2.7734-8.9727 5.3633-13.688 7.6758z"/>
  <path d="m178.98 553.13-5.6406 4.8086c14.613 17.203 33.855 29.785 55.496 36.168l2.1289-7.1211c-20.164-6.0156-38.297-17.762-51.984-33.855z"/>
  <path d="m158.08 535c2.3125 4.4414 4.8086 8.7891 7.6758 12.949l6.1055-4.1641c-2.6836-3.8867-4.9961-7.9531-7.1211-12.117z"/>
  <path d="m166.68 321.89-6.7539 2.9609c5.6406 12.672 21.551 19.426 43.379 19.426 11.098-0.09375 22.199-1.5742 32.93-4.2539l-1.7578-7.2148c-33.945 8.3203-61.23 3.8828-67.797-10.918z"/>
  <path d="m251.41 335.77c6.4766-2.1289 12.949-4.625 19.332-7.4922l-2.9609-6.7539c-6.1953 2.7734-12.395 5.1797-18.684 7.2148z"/>
  <path d="m525.37 362.58 11.664-6.4297 3.5703 6.4805-11.664 6.4297z"/>
  <path d="m174.91 292.11c5.457 12.211 20.258 19.148 41.809 19.426h1.4805c20.258 0 44.121-5.6406 67.523-16.094 23.957-10.637 44.582-24.973 58.18-40.422 14.246-16.188 19.055-31.82 13.598-44.027l-15.078-33.855c-10.914-24.605-59.66-26.176-110.81-3.4219-51.152 22.848-82.695 59.938-71.781 84.637zm45.785 12.027-11.746-26.453c12.672-0.73828 25.25-3.1445 37.461-6.9375l12.023 27.008c-13.227 3.8828-26.082 6.1055-37.738 6.3828zm61.973-15.355c-5.7344 2.5898-11.469 4.8086-17.203 6.7539l-12.023-27.008c5.6406-1.9414 11.469-4.2539 17.203-6.7539 5.8281-2.5898 11.285-5.3633 16.559-8.2305l12.023 27.008c-5.1797 2.8672-10.73 5.6406-16.559 8.2305zm-13.781-67.152c4.5312-2.3125 8.7891-4.625 12.855-6.9375l3.6992 6.3828c-4.1641 2.4062-8.6016 4.8086-13.227 7.2148zm74.273-24.512 7.4922 16.926c3.793 8.6016 0.27734 20.441-9.7109 32.93l-11.656-26.176c6.9375-8.0469 11.75-16.094 13.875-23.68zm-7.4922 55.961c-8.8789 9.1562-18.961 17.113-29.969 23.68l-12.023-27.008c11.008-6.4766 21.09-14.246 30.152-23.125zm-92.031-52.262c16.465-7.3086 32.652-12.766 45.602-15.445 15.168-3.0508 23.68-1.8516 26.176 3.793 2.6836 5.918-2.9609 13.688-17.02 23.586l-4.2539-6.0117c12.117-8.5078 14.613-13.41 14.523-14.523-2.3125-2.4961-23.863-1.5742-61.973 15.355-14.801 6.5664-28.395 14.059-38.387 21.09l-4.3516-6.0117c10.359-7.3086 24.512-15.078 39.684-21.832zm-42.734 76.957 11.656 26.176c-15.91-1.0156-27.102-6.2891-30.895-14.891l-7.4922-16.926c7.1211 3.5156 16.277 5.457 26.73 5.6406z"/>
  <path d="m580.88 333.73-6.0117-4.3477c-4.5312 6.2891-10.359 11.469-17.113 15.262l-5.918 3.3281 3.6055 6.4766 5.918-3.3281c7.6836-4.2578 14.434-10.176 19.52-17.391z"/>
  <path d="m392.19 416.42 59.289-17.758c9.9883-2.9609 15.816-13.227 13.227-23.309l-0.09375-0.37109c-1.4805-5.8281-5.457-10.637-10.82-13.227l6.5664-13.227c2.9609-5.918 4.0703-12.578 3.2383-19.055 11.008 6.2891 23.492 9.6211 36.168 9.8047 10.176 0.09375 20.258-2.4961 29.137-7.3086l32.375-17.852c33.945-18.684 43.102-67.336 20.441-108.5-22.66-41.066-68.727-59.289-102.67-40.605l-32.375 17.852c-23.309 12.855-35.797 40.512-32.375 71.316l-90.926 47.449c-6.1953 3.2383-11.285 8.3242-14.336 14.613l-39.402 79.18-102.48 51.242c-1.3867 0.64844-2.1289 2.1289-2.0352 3.6055l1.0156 11.84c3.9766 48.004 36.906 88.613 83.062 102.39 1.5742 0.46094 3.2383-0.09375 4.0703-1.4805l80.84-117.56zm61.602-71.129-6.3828 12.672-17.758 4.4414c-2.6836 0.46094-5.5508 1.0156-8.3242 1.4805-4.1641-6.1055-2.4961-14.523 3.6055-18.684 0 0 0.09375 0 0.09375-0.09375l4.8086-3.1445c1.6641-1.1094 2.1289-3.3281 1.1094-4.9961l-18.5-30.895 22.383-12.949 17.391 26.082c5.0898 7.8633 5.7383 17.762 1.5742 26.086zm-41.621 15.816-27.656-38.754 21.551-12.488 16.742 27.934-1.8516 1.2031c-7.2148 4.9023-10.637 13.688-8.7852 22.105zm-5.1797 5.457c-2.2188 0.37109-4.3477 0.83203-6.4766 1.2031-12.672 2.2188-25.066-5.0859-29.23-17.297l-5.7344-17.203 12.395-7.2148zm81.949-68.816c-1.7578 1.0156-4.0703 0.46094-5.0859-1.2969-0.18359-0.37109-0.37109-0.73828-0.46094-1.2031l-5.1797-27.102 1.3867-0.83203c1.8516-1.1094 3.6055-2.3125 5.2734-3.793l4.8086 25.066 32.465-19.516 3.793 6.3828zm68.91 9.8984-7.3086 4.0703c7.3086-11.379 11.191-25.344 11.379-40.051l24.883-13.688c-1.3867 21.27-11.469 40.047-28.953 49.668zm29.047-58.273-25.25 13.969c-1.0156-12.766-4.625-25.16-10.359-36.535l25.898-14.246c5.8242 11.469 9.1562 24.047 9.7109 36.812zm-13.32-43.289-25.898 14.246c-6.4766-11.008-15.078-20.625-25.25-28.305l25.16-13.875c10.539 7.3086 19.422 16.832 25.988 27.934zm-90.738-34.5c17.48-9.6211 38.758-8.1406 57.531 2.1289l-24.789 13.688c-4.0703-2.4961-8.3242-4.625-12.766-6.4766-8.6016-3.5156-17.852-5.3633-27.195-5.3633zm-6.9375 33.668 2.4062 15.723-6.9375 3.6055-2.7734-18.223zm-147.35 235.22-79.824 116.18c-41.902-13.691-71.594-51.152-75.293-95.18l-0.73828-9.3438 101.38-50.688c0.73828-0.37109 1.2969-0.92578 1.6641-1.6641l40.145-80.195c2.4062-4.9023 6.3828-8.8789 11.191-11.379l158.36-82.598 0.64844 1.2969c6.1055 12.211 1.6641 27.102-10.176 34.039l-116.55 67.43c-1.4805 0.92578-2.2188 2.6836-1.6641 4.3477l6.6602 20.07c5.2734 15.633 21.273 25.16 37.555 22.199 5.3633-1.0156 37.645-6.8438 41.254-7.4922 6.4766-1.1094 12.766 2.9609 14.336 9.3438l0.09375 0.37109c1.5742 6.1953-2.0352 12.578-8.2305 14.43l-59.66 17.852c-0.18359 0.09375-0.37109 0.18359-0.55469 0.27734l-59.199 29.598c-0.55859 0.18359-1.0195 0.64453-1.3906 1.1094z"/>
  <path d="m562.01 483.67-14.984-33.855c-6.1953-13.969-22.477-22.293-45.785-23.309-22.383-1.0156-48.93 4.7188-74.738 16.188-25.805 11.469-47.82 27.285-62.156 44.676-14.801 18.035-19.609 35.609-13.41 49.672l14.984 33.855c6.1953 13.969 22.477 22.293 45.785 23.309 1.6641 0.09375 3.4219 0.09375 5.1797 0.09375 21.273 0 45.785-5.7344 69.648-16.281 25.805-11.469 47.82-27.285 62.156-44.676 14.801-18.039 19.609-35.707 13.32-49.672zm-156.5 25.438 31.543-38.293c0.73828-0.92578 1.8516-1.3867 3.0508-1.3867l49.578 2.2188c2.0352 0.09375 3.6055 1.8516 3.5156 3.8867 0 0.83203-0.37109 1.5742-0.83203 2.2188l-31.543 38.293c-0.73828 0.83203-1.7578 1.3867-2.8672 1.3867h-0.18359l-49.578-2.2188c-2.0352-0.09375-3.6055-1.8516-3.5156-3.8867 0.09375-0.83203 0.37109-1.5742 0.83203-2.2188zm4.3477 51.148c12.672-0.92578 25.25-3.2383 37.367-7.0312l12.023 27.008c-12.395 3.793-25.16 6.0117-38.109 6.5664l0.46094-0.18359zm-37.184 7.5859-6.6602-14.984c7.9531 4.4414 18.312 7.0312 30.707 7.5859 1.6641 0.09375 3.3281 0.09375 5.0859 0.09375l11.746 26.363h-1.4805c-20.344-1.0234-34.312-7.7734-39.398-19.059zm110.9 3.3281c-5.7344 2.5898-11.469 4.8086-17.203 6.7539l-12.023-27.008c5.7344-1.9414 11.469-4.2539 17.203-6.7539 5.7344-2.5898 11.285-5.2734 16.559-8.2305l12.023 27.008c-5.3672 2.957-10.824 5.7344-16.559 8.2305zm22.938-12.023-12.023-27.008c10.914-6.4766 21.09-14.246 30.246-23.031l11.746 26.363 0.46094-0.18359c-9.1523 9.2461-19.328 17.199-30.43 23.859zm36.445-30.523c-0.27734 0.37109-0.64844 0.73828-0.92578 1.1094l-11.746-26.363c1.1094-1.2969 2.3125-2.5898 3.3281-3.8867 7.8633-9.5273 12.855-18.961 14.984-27.84l6.6602 14.984c5.0898 11.379 0.64844 26.27-12.301 41.996z"/>
  <path d="m439.45 498.93c-0.55469-0.55469-0.83203-1.3867-0.92578-2.1289l-1.3867-14.43-21.184 25.715 33.297 1.4805z"/>
  <path d="m457.86 508.09 24.145-29.32-37.926-1.6641 1.6641 17.758z"/>
 </g>
</svg>
